<svg width="1122" height="582" xmlns="http://www.w3.org/2000/svg">
  <g stroke="{SVG_WALL_COLOR}" stroke-width="{SVG_STROKE_WIDTH}">
    <line x1="580" y1="455" x2="4" y2="251" />
    <line x1="1115" y1="578" x2="902" y2="560" />
    <line x1="566" y1="168" x2="465" y2="135" />
    <line x1="699" y1="374" x2="524" y2="320" />
    <line x1="904" y1="540" x2="681" y2="549" />
    <line x1="262" y1="342" x2="4" y2="252" />
    <line x1="472" y1="134" x2="392" y2="330" />
    <line x1="228" y1="272" x2="298" y2="75" />
    <line x1="824" y1="399" x2="714" y2="395" />
    <line x1="279" y1="284" x2="396" y2="328" />
    <line x1="842" y1="415" x2="890" y2="426" />
    <line x1="92" y1="0" x2="298" y2="77" />
    <line x1="1060" y1="420" x2="920" y2="410" />
    <line x1="565" y1="166" x2="512" y2="314" />
    <line x1="228" y1="264" x2="395" y2="329" />
    <line x1="570" y1="486" x2="691" y2="494" />
    <line x1="845" y1="379" x2="853" y2="474" />
    <line x1="510" y1="311" x2="562" y2="329" />
    <line x1="1050" y1="512" x2="1056" y2="418" />
    <line x1="795" y1="552" x2="924" y2="537" />
    <line x1="689" y1="488" x2="685" y2="550" />
    <line x1="0" y1="249" x2="37" y2="152" />
    <line x1="729" y1="402" x2="688" y2="402" />
    <line x1="367" y1="320" x2="398" y2="326" />
    <line x1="687" y1="366" x2="691" y2="409" />
    <line x1="699" y1="551" x2="857" y2="544" />
    <line x1="1121" y1="510" x2="1112" y2="581" />
    <line x1="685" y1="406" x2="729" y2="403" />
    <line x1="896" y1="447" x2="913" y2="445" />
    <line x1="62" y1="142" x2="82" y2="81" />
    <line x1="845" y1="411" x2="872" y2="428" />
    <line x1="575" y1="497" x2="576" y2="453" />
    <line x1="774" y1="404" x2="799" y2="404" />
    <line x1="892" y1="441" x2="912" y2="447" />
    <line x1="69" y1="122" x2="64" y2="155" />
    <line x1="570" y1="506" x2="579" y2="450" />
    <line x1="875" y1="407" x2="891" y2="407" />
    <line x1="143" y1="200" x2="156" y2="225" />
  </g>
</svg>
