<svg width="861" height="464" xmlns="http://www.w3.org/2000/svg">
  <g stroke="{SVG_WALL_COLOR}" stroke-width="{SVG_STROKE_WIDTH}">
    <line x1="852" y1="140" x2="487" y2="174" />
    <line x1="614" y1="209" x2="626" y2="419" />
    <line x1="91" y1="401" x2="60" y2="302" />
    <line x1="228" y1="61" x2="64" y2="116" />
    <line x1="615" y1="209" x2="791" y2="197" />
    <line x1="294" y1="382" x2="517" y2="363" />
    <line x1="351" y1="200" x2="200" y2="254" />
    <line x1="802" y1="406" x2="786" y2="196" />
    <line x1="334" y1="24" x2="348" y2="204" />
    <line x1="49" y1="291" x2="0" y2="150" />
    <line x1="853" y1="142" x2="835" y2="405" />
    <line x1="326" y1="10" x2="482" y2="1" />
    <line x1="628" y1="416" x2="515" y2="422" />
    <line x1="128" y1="265" x2="54" y2="312" />
    <line x1="420" y1="369" x2="518" y2="362" />
    <line x1="270" y1="227" x2="196" y2="245" />
    <line x1="855" y1="239" x2="844" y2="138" />
    <line x1="481" y1="0" x2="495" y2="189" />
    <line x1="842" y1="399" x2="798" y2="403" />
    <line x1="482" y1="0" x2="487" y2="62" />
    <line x1="254" y1="397" x2="341" y2="371" />
    <line x1="49" y1="290" x2="133" y2="275" />
    <line x1="347" y1="204" x2="334" y2="4" />
    <line x1="403" y1="115" x2="435" y2="98" />
    <line x1="243" y1="360" x2="249" y2="393" />
    <line x1="63" y1="117" x2="95" y2="209" />
    <line x1="333" y1="310" x2="361" y2="375" />
    <line x1="512" y1="361" x2="518" y2="423" />
    <line x1="395" y1="113" x2="446" y2="103" />
    <line x1="79" y1="316" x2="132" y2="279" />
    <line x1="226" y1="61" x2="230" y2="97" />
    <line x1="473" y1="192" x2="507" y2="174" />
    <line x1="211" y1="351" x2="242" y2="357" />
    <line x1="341" y1="370" x2="340" y2="313" />
    <line x1="842" y1="237" x2="844" y2="278" />
    <line x1="464" y1="102" x2="489" y2="97" />
    <line x1="210" y1="338" x2="138" y2="361" />
    <line x1="333" y1="347" x2="351" y2="346" />
    <line x1="164" y1="286" x2="135" y2="309" />
    <line x1="232" y1="132" x2="233" y2="157" />
    <line x1="300" y1="228" x2="329" y2="204" />
    <line x1="85" y1="393" x2="112" y2="391" />
    <line x1="400" y1="71" x2="381" y2="93" />
    <line x1="444" y1="106" x2="420" y2="109" />
    <line x1="199" y1="337" x2="222" y2="356" />
    <line x1="208" y1="140" x2="233" y2="135" />
    <line x1="234" y1="349" x2="255" y2="398" />
    <line x1="109" y1="390" x2="88" y2="399" />
    <line x1="207" y1="135" x2="232" y2="140" />
    <line x1="852" y1="260" x2="824" y2="252" />
    <line x1="226" y1="206" x2="252" y2="205" />
    <line x1="385" y1="103" x2="405" y2="115" />
    <line x1="473" y1="186" x2="491" y2="190" />
    <line x1="234" y1="229" x2="249" y2="214" />
    <line x1="107" y1="442" x2="114" y2="463" />
    <line x1="238" y1="228" x2="253" y2="219" />
    <line x1="104" y1="454" x2="106" y2="440" />
    <line x1="463" y1="101" x2="486" y2="103" />
    <line x1="518" y1="419" x2="536" y2="423" />
    <line x1="801" y1="142" x2="820" y2="136" />
    <line x1="461" y1="95" x2="485" y2="75" />
    <line x1="214" y1="200" x2="230" y2="207" />
  </g>
</svg>
