<svg width="1335" height="1760" xmlns="http://www.w3.org/2000/svg">
  <g stroke="{SVG_WALL_COLOR}" stroke-width="{SVG_STROKE_WIDTH}">
    <line x1="488" y1="559" x2="473" y2="352" />
    <line x1="1015" y1="434" x2="1009" y2="230" />
    <line x1="732" y1="23" x2="469" y2="42" />
    <line x1="994" y1="1373" x2="1182" y2="1362" />
    <line x1="501" y1="854" x2="485" y2="645" />
    <line x1="470" y1="205" x2="472" y2="225" />
    <line x1="1013" y1="1087" x2="1008" y2="976" />
    <line x1="1151" y1="879" x2="1153" y2="788" />
    <line x1="1324" y1="1355" x2="1187" y2="1372" />
    <line x1="528" y1="1086" x2="529" y2="933" />
    <line x1="527" y1="635" x2="522" y2="555" />
    <line x1="538" y1="1014" x2="542" y2="846" />
    <line x1="1311" y1="1175" x2="1322" y2="1356" />
    <line x1="749" y1="1669" x2="775" y2="1746" />
    <line x1="513" y1="343" x2="517" y2="260" />
    <line x1="974" y1="1374" x2="893" y2="1379" />
    <line x1="1239" y1="611" x2="1247" y2="786" />
    <line x1="512" y1="216" x2="515" y2="301" />
    <line x1="1238" y1="197" x2="1243" y2="9" />
    <line x1="572" y1="1276" x2="586" y2="1351" />
    <line x1="746" y1="1591" x2="729" y2="1391" />
    <line x1="555" y1="1080" x2="585" y2="1208" />
    <line x1="471" y1="175" x2="474" y2="38" />
    <line x1="1014" y1="410" x2="1014" y2="297" />
    <line x1="751" y1="1384" x2="536" y2="1386" />
    <line x1="1139" y1="1146" x2="1167" y2="1195" />
    <line x1="1166" y1="3" x2="1221" y2="0" />
    <line x1="727" y1="779" x2="1004" y2="757" />
    <line x1="1240" y1="216" x2="1240" y2="131" />
    <line x1="586" y1="32" x2="477" y2="37" />
    <line x1="160" y1="620" x2="169" y2="746" />
    <line x1="901" y1="1375" x2="932" y2="1680" />
    <line x1="729" y1="775" x2="734" y2="858" />
    <line x1="1010" y1="1057" x2="1000" y2="916" />
    <line x1="910" y1="1442" x2="926" y2="1731" />
    <line x1="1018" y1="837" x2="731" y2="857" />
    <line x1="752" y1="24" x2="820" y2="22" />
    <line x1="600" y1="857" x2="601" y2="895" />
    <line x1="737" y1="1598" x2="751" y2="1717" />
    <line x1="142" y1="286" x2="147" y2="341" />
    <line x1="1155" y1="614" x2="1150" y2="455" />
    <line x1="443" y1="100" x2="439" y2="52" />
    <line x1="487" y1="205" x2="490" y2="174" />
    <line x1="1007" y1="233" x2="1217" y2="215" />
    <line x1="528" y1="1059" x2="541" y2="986" />
    <line x1="453" y1="648" x2="532" y2="627" />
    <line x1="1137" y1="7" x2="966" y2="19" />
    <line x1="135" y1="166" x2="133" y2="134" />
    <line x1="160" y1="529" x2="152" y2="461" />
    <line x1="1257" y1="1373" x2="1122" y2="1365" />
    <line x1="474" y1="425" x2="476" y2="345" />
    <line x1="1153" y1="1134" x2="1149" y2="1097" />
    <line x1="749" y1="1740" x2="924" y2="1734" />
    <line x1="1245" y1="787" x2="1247" y2="720" />
    <line x1="960" y1="1375" x2="965" y2="1346" />
    <line x1="599" y1="1277" x2="580" y2="1169" />
    <line x1="958" y1="598" x2="1048" y2="591" />
    <line x1="1315" y1="1179" x2="1161" y2="1184" />
    <line x1="736" y1="1384" x2="732" y2="1499" />
    <line x1="147" y1="360" x2="151" y2="443" />
    <line x1="475" y1="264" x2="473" y2="248" />
    <line x1="545" y1="1299" x2="527" y2="1280" />
    <line x1="559" y1="1135" x2="584" y2="1208" />
    <line x1="1155" y1="1077" x2="1012" y2="1085" />
    <line x1="164" y1="662" x2="171" y2="749" />
    <line x1="772" y1="1745" x2="733" y2="1646" />
    <line x1="498" y1="818" x2="488" y2="640" />
    <line x1="1013" y1="431" x2="1227" y2="422" />
    <line x1="749" y1="58" x2="754" y2="22" />
    <line x1="519" y1="985" x2="527" y2="1085" />
    <line x1="590" y1="1188" x2="575" y2="1185" />
    <line x1="535" y1="1384" x2="558" y2="1388" />
    <line x1="922" y1="1184" x2="946" y2="1182" />
    <line x1="1034" y1="1082" x2="1129" y2="1079" />
    <line x1="525" y1="1084" x2="557" y2="1087" />
    <line x1="531" y1="559" x2="441" y2="555" />
    <line x1="1238" y1="608" x2="1156" y2="614" />
    <line x1="1288" y1="1180" x2="1221" y2="1181" />
    <line x1="932" y1="99" x2="1021" y2="97" />
    <line x1="613" y1="597" x2="595" y2="642" />
    <line x1="1040" y1="231" x2="1214" y2="216" />
    <line x1="444" y1="100" x2="463" y2="100" />
    <line x1="1151" y1="497" x2="1156" y2="613" />
    <line x1="142" y1="266" x2="144" y2="236" />
    <line x1="598" y1="641" x2="582" y2="606" />
    <line x1="955" y1="510" x2="1041" y2="511" />
    <line x1="1148" y1="1182" x2="1195" y2="1185" />
    <line x1="1007" y1="1010" x2="993" y2="879" />
    <line x1="516" y1="317" x2="522" y2="332" />
    <line x1="839" y1="125" x2="918" y2="120" />
    <line x1="444" y1="853" x2="502" y2="848" />
    <line x1="748" y1="1599" x2="747" y2="1565" />
    <line x1="955" y1="511" x2="959" y2="597" />
    <line x1="451" y1="371" x2="520" y2="331" />
    <line x1="751" y1="1669" x2="751" y2="1716" />
    <line x1="838" y1="127" x2="834" y2="68" />
    <line x1="1022" y1="10" x2="1015" y2="99" />
    <line x1="171" y1="765" x2="174" y2="813" />
    <line x1="989" y1="863" x2="1000" y2="897" />
    <line x1="176" y1="462" x2="195" y2="468" />
    <line x1="655" y1="634" x2="585" y2="626" />
    <line x1="913" y1="65" x2="917" y2="124" />
    <line x1="579" y1="1201" x2="580" y2="1180" />
    <line x1="886" y1="567" x2="910" y2="565" />
    <line x1="418" y1="132" x2="425" y2="148" />
    <line x1="990" y1="919" x2="994" y2="855" />
    <line x1="962" y1="1348" x2="997" y2="1347" />
    <line x1="980" y1="1184" x2="997" y2="1184" />
    <line x1="656" y1="637" x2="589" y2="641" />
    <line x1="1150" y1="878" x2="1091" y2="881" />
    <line x1="417" y1="142" x2="465" y2="122" />
    <line x1="1046" y1="37" x2="1064" y2="10" />
    <line x1="1249" y1="783" x2="1146" y2="789" />
    <line x1="425" y1="124" x2="465" y2="124" />
    <line x1="541" y1="1295" x2="543" y2="1281" />
    <line x1="1047" y1="856" x2="1074" y2="856" />
    <line x1="657" y1="638" x2="588" y2="616" />
    <line x1="1138" y1="36" x2="1135" y2="6" />
    <line x1="785" y1="50" x2="786" y2="23" />
    <line x1="471" y1="247" x2="474" y2="264" />
    <line x1="786" y1="1389" x2="786" y2="1372" />
    <line x1="641" y1="614" x2="653" y2="641" />
    <line x1="930" y1="1232" x2="942" y2="1253" />
    <line x1="1157" y1="1364" x2="1154" y2="1336" />
    <line x1="1229" y1="431" x2="1231" y2="455" />
    <line x1="921" y1="1733" x2="928" y2="1702" />
    <line x1="722" y1="662" x2="739" y2="668" />
    <line x1="577" y1="1386" x2="608" y2="1386" />
    <line x1="826" y1="405" x2="827" y2="369" />
    <line x1="151" y1="464" x2="228" y2="461" />
    <line x1="584" y1="1179" x2="580" y2="1203" />
    <line x1="820" y1="406" x2="830" y2="372" />
    <line x1="1062" y1="30" x2="1020" y2="39" />
    <line x1="1080" y1="6" x2="1042" y2="38" />
    <line x1="811" y1="404" x2="812" y2="382" />
    <line x1="533" y1="1359" x2="537" y2="1385" />
    <line x1="569" y1="858" x2="602" y2="857" />
    <line x1="924" y1="1187" x2="924" y2="1168" />
    <line x1="816" y1="406" x2="824" y2="375" />
    <line x1="612" y1="611" x2="628" y2="643" />
    <line x1="1110" y1="1076" x2="1155" y2="1076" />
    <line x1="541" y1="883" x2="555" y2="882" />
    <line x1="934" y1="97" x2="934" y2="77" />
    <line x1="1055" y1="33" x2="1057" y2="10" />
    <line x1="164" y1="556" x2="165" y2="575" />
    <line x1="824" y1="44" x2="777" y2="46" />
    <line x1="900" y1="1375" x2="892" y2="1395" />
    <line x1="511" y1="265" x2="513" y2="305" />
    <line x1="637" y1="639" x2="640" y2="614" />
    <line x1="600" y1="1200" x2="618" y2="1229" />
    <line x1="453" y1="365" x2="471" y2="359" />
    <line x1="525" y1="1292" x2="587" y2="1302" />
    <line x1="772" y1="1578" x2="772" y2="1558" />
    <line x1="417" y1="133" x2="421" y2="156" />
    <line x1="472" y1="247" x2="481" y2="266" />
    <line x1="1157" y1="1071" x2="1167" y2="1090" />
    <line x1="434" y1="66" x2="469" y2="64" />
    <line x1="263" y1="849" x2="264" y2="867" />
    <line x1="608" y1="623" x2="614" y2="597" />
    <line x1="431" y1="62" x2="440" y2="99" />
    <line x1="929" y1="1247" x2="932" y2="1233" />
    <line x1="909" y1="562" x2="909" y2="582" />
  </g>
</svg>
